# This file uses centimeters as units for non-parametric coordinates.

mtllib modelo.mtl
g default
v -0.641538 0.435629 -0.748191
v 0.641538 0.435629 -0.748191
v -0.641538 0.521033 -0.735337
v 0.641538 0.521033 -0.735337
v -0.641538 0.536188 -0.836025
v 0.641538 0.536188 -0.836025
v -0.641538 0.450783 -0.848880
v 0.641538 0.450783 -0.848880
vt 0.375000 0.000000
vt 0.625000 0.000000
vt 0.375000 0.250000
vt 0.625000 0.250000
vt 0.375000 0.500000
vt 0.625000 0.500000
vt 0.375000 0.750000
vt 0.625000 0.750000
vt 0.375000 1.000000
vt 0.625000 1.000000
vt 0.875000 0.000000
vt 0.875000 0.250000
vt 0.125000 0.000000
vt 0.125000 0.250000
vn 0.000000 -0.148835 0.988862
vn 0.000000 -0.148835 0.988862
vn 0.000000 -0.148835 0.988862
vn 0.000000 -0.148835 0.988862
vn 0.000000 0.988862 0.148835
vn 0.000000 0.988862 0.148835
vn 0.000000 0.988862 0.148835
vn 0.000000 0.988862 0.148835
vn 0.000000 0.148835 -0.988862
vn 0.000000 0.148835 -0.988862
vn 0.000000 0.148835 -0.988862
vn 0.000000 0.148835 -0.988862
vn 0.000000 -0.988862 -0.148835
vn 0.000000 -0.988862 -0.148835
vn 0.000000 -0.988862 -0.148835
vn 0.000000 -0.988862 -0.148835
vn 1.000000 0.000000 0.000000
vn 1.000000 0.000000 0.000000
vn 1.000000 0.000000 0.000000
vn 1.000000 0.000000 0.000000
vn -1.000000 0.000000 0.000000
vn -1.000000 0.000000 0.000000
vn -1.000000 0.000000 0.000000
vn -1.000000 0.000000 0.000000
s off
g pCube2
usemtl lambert2SG
f 1/1/1 2/2/2 4/4/3 3/3/4
f 3/3/5 4/4/6 6/6/7 5/5/8
f 5/5/9 6/6/10 8/8/11 7/7/12
f 7/7/13 8/8/14 2/10/15 1/9/16
f 2/2/17 8/11/18 6/12/19 4/4/20
f 7/13/21 1/1/22 3/3/23 5/14/24
g default
v -0.724437 0.057292 -0.820296
v -0.617166 0.057292 -0.820296
v -0.724437 2.511243 -0.330294
v -0.617166 2.511243 -0.330294
v -0.724437 2.531691 -0.432701
v -0.617166 2.531691 -0.432701
v -0.724437 0.077740 -0.922703
v -0.617166 0.077740 -0.922703
vt 0.375000 0.000000
vt 0.625000 0.000000
vt 0.375000 0.250000
vt 0.625000 0.250000
vt 0.375000 0.500000
vt 0.625000 0.500000
vt 0.375000 0.750000
vt 0.625000 0.750000
vt 0.375000 1.000000
vt 0.625000 1.000000
vt 0.875000 0.000000
vt 0.875000 0.250000
vt 0.125000 0.000000
vt 0.125000 0.250000
vn 0.000000 -0.195813 0.980641
vn 0.000000 -0.195813 0.980641
vn 0.000000 -0.195813 0.980641
vn 0.000000 -0.195813 0.980641
vn 0.000000 0.980641 0.195813
vn 0.000000 0.980641 0.195813
vn 0.000000 0.980641 0.195813
vn 0.000000 0.980641 0.195813
vn 0.000000 0.195813 -0.980641
vn 0.000000 0.195813 -0.980641
vn 0.000000 0.195813 -0.980641
vn 0.000000 0.195813 -0.980641
vn 0.000000 -0.980641 -0.195813
vn 0.000000 -0.980641 -0.195813
vn 0.000000 -0.980641 -0.195813
vn 0.000000 -0.980641 -0.195813
vn 1.000000 0.000000 0.000000
vn 1.000000 0.000000 0.000000
vn 1.000000 0.000000 0.000000
vn 1.000000 0.000000 0.000000
vn -1.000000 0.000000 0.000000
vn -1.000000 0.000000 0.000000
vn -1.000000 0.000000 0.000000
vn -1.000000 0.000000 0.000000
s off
g pCube3
usemtl lambert2SG
f 9/15/25 10/16/26 12/18/27 11/17/28
f 11/17/29 12/18/30 14/20/31 13/19/32
f 13/19/33 14/20/34 16/22/35 15/21/36
f 15/21/37 16/22/38 10/24/39 9/23/40
f 10/16/41 16/25/42 14/26/43 12/18/44
f 15/27/45 9/15/46 11/17/47 13/28/48
g default
v -0.643100 2.396754 -0.353657
v 0.643100 2.396754 -0.353657
v -0.643100 2.514404 -0.332391
v 0.643100 2.514404 -0.332391
v -0.643100 2.533092 -0.435779
v 0.643100 2.533092 -0.435779
v -0.643100 2.415442 -0.457045
v 0.643100 2.415442 -0.457045
vt 0.375000 0.000000
vt 0.625000 0.000000
vt 0.375000 0.250000
vt 0.625000 0.250000
vt 0.375000 0.500000
vt 0.625000 0.500000
vt 0.375000 0.750000
vt 0.625000 0.750000
vt 0.375000 1.000000
vt 0.625000 1.000000
vt 0.875000 0.000000
vt 0.875000 0.250000
vt 0.125000 0.000000
vt 0.125000 0.250000
vn 0.000000 -0.177870 0.984054
vn 0.000000 -0.177870 0.984054
vn 0.000000 -0.177870 0.984054
vn 0.000000 -0.177870 0.984054
vn 0.000000 0.984054 0.177870
vn 0.000000 0.984054 0.177870
vn 0.000000 0.984054 0.177870
vn 0.000000 0.984054 0.177870
vn 0.000000 0.177870 -0.984054
vn 0.000000 0.177870 -0.984054
vn 0.000000 0.177870 -0.984054
vn 0.000000 0.177870 -0.984054
vn 0.000000 -0.984054 -0.177870
vn 0.000000 -0.984054 -0.177870
vn 0.000000 -0.984054 -0.177870
vn 0.000000 -0.984054 -0.177870
vn 1.000000 0.000000 0.000000
vn 1.000000 0.000000 0.000000
vn 1.000000 0.000000 0.000000
vn 1.000000 0.000000 0.000000
vn -1.000000 0.000000 0.000000
vn -1.000000 0.000000 0.000000
vn -1.000000 0.000000 0.000000
vn -1.000000 0.000000 0.000000
s off
g pCube4
usemtl lambert8SG
f 17/29/49 18/30/50 20/32/51 19/31/52
f 19/31/53 20/32/54 22/34/55 21/33/56
f 21/33/57 22/34/58 24/36/59 23/35/60
f 23/35/61 24/36/62 18/38/63 17/37/64
f 18/30/65 24/39/66 22/40/67 20/32/68
f 23/41/69 17/29/70 19/31/71 21/42/72
g default
v 0.637192 0.512070 0.158382
v -0.637500 0.512070 0.157425
v 0.637537 2.433327 -0.301109
v -0.637155 2.433327 -0.302066
v 0.637500 2.444976 -0.252403
v -0.637192 2.444976 -0.253359
v 0.637155 0.523718 0.207088
v -0.637537 0.523718 0.206131
vt 0.375000 0.000000
vt 0.625000 0.000000
vt 0.375000 0.250000
vt 0.625000 0.250000
vt 0.375000 0.500000
vt 0.625000 0.500000
vt 0.375000 0.750000
vt 0.625000 0.750000
vt 0.375000 1.000000
vt 0.625000 1.000000
vt 0.875000 0.000000
vt 0.875000 0.250000
vt 0.125000 0.000000
vt 0.125000 0.250000
vn 0.000730 -0.232602 -0.972572
vn 0.000730 -0.232602 -0.972572
vn 0.000730 -0.232602 -0.972572
vn 0.000730 -0.232602 -0.972572
vn 0.000175 0.972572 -0.232602
vn 0.000175 0.972572 -0.232602
vn 0.000175 0.972572 -0.232602
vn 0.000175 0.972572 -0.232602
vn -0.000730 0.232602 0.972572
vn -0.000730 0.232602 0.972572
vn -0.000730 0.232602 0.972572
vn -0.000730 0.232602 0.972572
vn -0.000175 -0.972572 0.232602
vn -0.000175 -0.972572 0.232602
vn -0.000175 -0.972572 0.232602
vn -0.000175 -0.972572 0.232602
vn -1.000000 -0.000000 -0.000751
vn -1.000000 -0.000000 -0.000751
vn -1.000000 -0.000000 -0.000751
vn -1.000000 -0.000000 -0.000751
vn 1.000000 0.000000 0.000751
vn 1.000000 0.000000 0.000751
vn 1.000000 0.000000 0.000751
vn 1.000000 0.000000 0.000751
s off
g pCube5
usemtl lambert9SG
f 25/43/73 26/44/74 28/46/75 27/45/76
f 27/45/77 28/46/78 30/48/79 29/47/80
f 29/47/81 30/48/82 32/50/83 31/49/84
f 31/49/85 32/50/86 26/52/87 25/51/88
f 26/44/89 32/53/90 30/54/91 28/46/92
f 31/55/93 25/43/94 27/45/95 29/56/96
g default
v -0.722083 2.421982 -0.346723
v 0.722083 2.421982 -0.346723
v -0.722083 2.507387 -0.333869
v 0.722083 2.507387 -0.333869
v -0.722083 2.522541 -0.434557
v 0.722083 2.522541 -0.434557
v -0.722083 2.437137 -0.447412
v 0.722083 2.437137 -0.447412
vt 0.375000 0.000000
vt 0.625000 0.000000
vt 0.375000 0.250000
vt 0.625000 0.250000
vt 0.875000 0.000000
vt 0.875000 0.250000
vt 0.125000 0.000000
vt 0.125000 0.250000
vn 1.000000 0.000000 0.000000
vn 1.000000 0.000000 0.000000
vn 1.000000 0.000000 0.000000
vn 1.000000 0.000000 0.000000
vn -1.000000 0.000000 0.000000
vn -1.000000 0.000000 0.000000
vn -1.000000 0.000000 0.000000
vn -1.000000 0.000000 0.000000
s off
g pasted__pCube2 group2
usemtl lambert2SG
f 34/58/97 40/61/98 38/62/99 36/60/100
f 39/63/101 33/57/102 35/59/103 37/64/104
g default
v 0.619663 0.057292 -0.820296
v 0.726933 0.057292 -0.820296
v 0.619663 2.511243 -0.330294
v 0.726933 2.511243 -0.330294
v 0.619663 2.531691 -0.432701
v 0.726933 2.531691 -0.432701
v 0.619663 0.077740 -0.922703
v 0.726933 0.077740 -0.922703
vt 0.375000 0.000000
vt 0.625000 0.000000
vt 0.375000 0.250000
vt 0.625000 0.250000
vt 0.375000 0.500000
vt 0.625000 0.500000
vt 0.375000 0.750000
vt 0.625000 0.750000
vt 0.375000 1.000000
vt 0.625000 1.000000
vt 0.875000 0.000000
vt 0.875000 0.250000
vt 0.125000 0.000000
vt 0.125000 0.250000
vn 0.000000 -0.195813 0.980641
vn 0.000000 -0.195813 0.980641
vn 0.000000 -0.195813 0.980641
vn 0.000000 -0.195813 0.980641
vn 0.000000 0.980641 0.195813
vn 0.000000 0.980641 0.195813
vn 0.000000 0.980641 0.195813
vn 0.000000 0.980641 0.195813
vn 0.000000 0.195813 -0.980641
vn 0.000000 0.195813 -0.980641
vn 0.000000 0.195813 -0.980641
vn 0.000000 0.195813 -0.980641
vn 0.000000 -0.980641 -0.195813
vn 0.000000 -0.980641 -0.195813
vn 0.000000 -0.980641 -0.195813
vn 0.000000 -0.980641 -0.195813
vn 1.000000 0.000000 0.000000
vn 1.000000 0.000000 0.000000
vn 1.000000 0.000000 0.000000
vn 1.000000 0.000000 0.000000
vn -1.000000 0.000000 0.000000
vn -1.000000 0.000000 0.000000
vn -1.000000 0.000000 0.000000
vn -1.000000 0.000000 0.000000
s off
g pasted__pCube3 group3
usemtl lambert2SG
f 41/65/105 42/66/106 44/68/107 43/67/108
f 43/67/109 44/68/110 46/70/111 45/69/112
f 45/69/113 46/70/114 48/72/115 47/71/116
f 47/71/117 48/72/118 42/74/119 41/73/120
f 42/66/121 48/75/122 46/76/123 44/68/124
f 47/77/125 41/65/126 43/67/127 45/78/128
g default
v -0.724437 0.101561 0.362290
v -0.617166 0.101561 0.362290
v -0.724437 2.533941 -0.225503
v -0.617166 2.533941 -0.225503
v -0.724437 2.509412 -0.327009
v -0.617166 2.509412 -0.327009
v -0.724437 0.077031 0.260783
v -0.617166 0.077031 0.260783
vt 0.375000 0.000000
vt 0.625000 0.000000
vt 0.375000 0.250000
vt 0.625000 0.250000
vt 0.375000 0.500000
vt 0.625000 0.500000
vt 0.375000 0.750000
vt 0.625000 0.750000
vt 0.375000 1.000000
vt 0.625000 1.000000
vt 0.875000 0.000000
vt 0.875000 0.250000
vt 0.125000 0.000000
vt 0.125000 0.250000
vn 0.000000 0.234892 0.972021
vn 0.000000 0.234892 0.972021
vn 0.000000 0.234892 0.972021
vn 0.000000 0.234892 0.972021
vn 0.000000 0.972021 -0.234892
vn 0.000000 0.972021 -0.234892
vn 0.000000 0.972021 -0.234892
vn 0.000000 0.972021 -0.234892
vn 0.000000 -0.234892 -0.972021
vn 0.000000 -0.234892 -0.972021
vn 0.000000 -0.234892 -0.972021
vn 0.000000 -0.234892 -0.972021
vn 0.000000 -0.972021 0.234892
vn 0.000000 -0.972021 0.234892
vn 0.000000 -0.972021 0.234892
vn 0.000000 -0.972021 0.234892
vn 1.000000 0.000000 0.000000
vn 1.000000 0.000000 0.000000
vn 1.000000 0.000000 0.000000
vn 1.000000 0.000000 0.000000
vn -1.000000 0.000000 0.000000
vn -1.000000 0.000000 0.000000
vn -1.000000 0.000000 0.000000
vn -1.000000 0.000000 0.000000
s off
g pasted__pCube3 group4
usemtl lambert6SG
f 49/79/129 50/80/130 52/82/131 51/81/132
f 51/81/133 52/82/134 54/84/135 53/83/136
f 53/83/137 54/84/138 56/86/139 55/85/140
f 55/85/141 56/86/142 50/88/143 49/87/144
f 50/80/145 56/89/146 54/90/147 52/82/148
f 55/91/149 49/79/150 51/81/151 53/92/152
g default
v -0.617717 0.512493 -0.718339
v 0.631211 0.512524 -0.717402
v -0.618062 2.447973 -0.323017
v 0.630866 2.448004 -0.322080
v -0.618025 2.457995 -0.372084
v 0.630903 2.458026 -0.371147
v -0.617680 0.522515 -0.767406
v 0.631248 0.522546 -0.766469
vt 0.375000 0.000000
vt 0.625000 0.000000
vt 0.375000 0.250000
vt 0.625000 0.250000
vt 0.375000 0.500000
vt 0.625000 0.500000
vt 0.375000 0.750000
vt 0.625000 0.750000
vt 0.375000 1.000000
vt 0.625000 1.000000
vt 0.875000 0.000000
vt 0.875000 0.250000
vt 0.125000 0.000000
vt 0.125000 0.250000
vn -0.000730 -0.200119 0.979771
vn -0.000730 -0.200119 0.979771
vn -0.000730 -0.200119 0.979771
vn -0.000730 -0.200119 0.979771
vn -0.000175 0.979772 0.200119
vn -0.000175 0.979772 0.200119
vn -0.000175 0.979772 0.200119
vn -0.000175 0.979772 0.200119
vn 0.000730 0.200119 -0.979771
vn 0.000730 0.200119 -0.979771
vn 0.000730 0.200119 -0.979771
vn 0.000730 0.200119 -0.979771
vn 0.000175 -0.979772 -0.200119
vn 0.000175 -0.979772 -0.200119
vn 0.000175 -0.979772 -0.200119
vn 0.000175 -0.979772 -0.200119
vn 1.000000 0.000025 0.000750
vn 1.000000 0.000025 0.000750
vn 1.000000 0.000025 0.000750
vn 1.000000 0.000025 0.000750
vn -1.000000 -0.000025 -0.000750
vn -1.000000 -0.000025 -0.000750
vn -1.000000 -0.000025 -0.000750
vn -1.000000 -0.000025 -0.000750
s off
g pasted__pCube5 group9
usemtl pasted__lambert9SG
f 57/93/153 58/94/154 60/96/155 59/95/156
f 59/95/157 60/96/158 62/98/159 61/97/160
f 61/97/161 62/98/162 64/100/163 63/99/164
f 63/99/165 64/100/166 58/102/167 57/101/168
f 58/94/169 64/103/170 62/104/171 60/96/172
f 63/105/173 57/93/174 59/95/175 61/106/176
g default
v -0.640698 2.442740 -0.207304
v 0.640698 2.442740 -0.207304
v -0.640698 2.526519 -0.228284
v 0.640698 2.526519 -0.228284
v -0.640698 2.501784 -0.327057
v 0.640698 2.501784 -0.327057
v -0.640698 2.418005 -0.306077
v 0.640698 2.418005 -0.306077
vt 0.375000 0.000000
vt 0.625000 0.000000
vt 0.375000 0.250000
vt 0.625000 0.250000
vt 0.375000 0.500000
vt 0.625000 0.500000
vt 0.375000 0.750000
vt 0.625000 0.750000
vt 0.375000 1.000000
vt 0.625000 1.000000
vt 0.875000 0.000000
vt 0.875000 0.250000
vt 0.125000 0.000000
vt 0.125000 0.250000
vn 0.000000 0.242922 0.970046
vn 0.000000 0.242922 0.970046
vn 0.000000 0.242922 0.970046
vn 0.000000 0.242922 0.970046
vn 0.000000 0.970046 -0.242921
vn 0.000000 0.970046 -0.242921
vn 0.000000 0.970046 -0.242921
vn 0.000000 0.970046 -0.242921
vn 0.000000 -0.242922 -0.970046
vn 0.000000 -0.242922 -0.970046
vn 0.000000 -0.242922 -0.970046
vn 0.000000 -0.242922 -0.970046
vn 0.000000 -0.970046 0.242921
vn 0.000000 -0.970046 0.242921
vn 0.000000 -0.970046 0.242921
vn 0.000000 -0.970046 0.242921
vn 1.000000 0.000000 0.000000
vn 1.000000 0.000000 0.000000
vn 1.000000 0.000000 0.000000
vn 1.000000 0.000000 0.000000
vn -1.000000 0.000000 0.000000
vn -1.000000 0.000000 0.000000
vn -1.000000 0.000000 0.000000
vn -1.000000 0.000000 0.000000
s off
g pasted__pasted__pCube2 pasted__group2 group5
usemtl lambert2SG
f 65/107/177 66/108/178 68/110/179 67/109/180
f 67/109/181 68/110/182 70/112/183 69/111/184
f 69/111/185 70/112/186 72/114/187 71/113/188
f 71/113/189 72/114/190 66/116/191 65/115/192
f 66/108/193 72/117/194 70/118/195 68/110/196
f 71/119/197 65/107/198 67/109/199 69/120/200
g default
v 0.619656 0.101561 0.362290
v 0.726926 0.101561 0.362290
v 0.619656 2.533941 -0.225503
v 0.726926 2.533941 -0.225503
v 0.619656 2.509412 -0.327009
v 0.726926 2.509412 -0.327009
v 0.619656 0.077031 0.260783
v 0.726926 0.077031 0.260783
vt 0.375000 0.000000
vt 0.625000 0.000000
vt 0.375000 0.250000
vt 0.625000 0.250000
vt 0.375000 0.500000
vt 0.625000 0.500000
vt 0.375000 0.750000
vt 0.625000 0.750000
vt 0.375000 1.000000
vt 0.625000 1.000000
vt 0.875000 0.000000
vt 0.875000 0.250000
vt 0.125000 0.000000
vt 0.125000 0.250000
vn 0.000000 0.234892 0.972021
vn 0.000000 0.234892 0.972021
vn 0.000000 0.234892 0.972021
vn 0.000000 0.234892 0.972021
vn 0.000000 0.972021 -0.234892
vn 0.000000 0.972021 -0.234892
vn 0.000000 0.972021 -0.234892
vn 0.000000 0.972021 -0.234892
vn 0.000000 -0.234892 -0.972021
vn 0.000000 -0.234892 -0.972021
vn 0.000000 -0.234892 -0.972021
vn 0.000000 -0.234892 -0.972021
vn 0.000000 -0.972021 0.234892
vn 0.000000 -0.972021 0.234892
vn 0.000000 -0.972021 0.234892
vn 0.000000 -0.972021 0.234892
vn 1.000000 0.000000 0.000000
vn 1.000000 0.000000 0.000000
vn 1.000000 0.000000 0.000000
vn 1.000000 0.000000 0.000000
vn -1.000000 0.000000 0.000000
vn -1.000000 0.000000 0.000000
vn -1.000000 0.000000 0.000000
vn -1.000000 0.000000 0.000000
s off
g pasted__pasted__pCube3 pasted__group4 group6
usemtl lambert2SG
f 73/121/201 74/122/202 76/124/203 75/123/204
f 75/123/205 76/124/206 78/126/207 77/125/208
f 77/125/209 78/126/210 80/128/211 79/127/212
f 79/127/213 80/128/214 74/130/215 73/129/216
f 74/122/217 80/131/218 78/132/219 76/124/220
f 79/133/221 73/121/222 75/123/223 77/134/224
g default
v -0.650923 0.453330 0.274801
v 0.650923 0.453330 0.274801
v -0.650923 0.537110 0.253821
v 0.650923 0.537110 0.253821
v -0.650923 0.512375 0.155048
v 0.650923 0.512375 0.155048
v -0.650923 0.428596 0.176029
v 0.650923 0.428596 0.176029
vt 0.375000 0.000000
vt 0.625000 0.000000
vt 0.375000 0.250000
vt 0.625000 0.250000
vt 0.375000 0.500000
vt 0.625000 0.500000
vt 0.375000 0.750000
vt 0.625000 0.750000
vt 0.375000 1.000000
vt 0.625000 1.000000
vt 0.875000 0.000000
vt 0.875000 0.250000
vt 0.125000 0.000000
vt 0.125000 0.250000
vn 0.000000 0.242921 0.970046
vn 0.000000 0.242921 0.970046
vn 0.000000 0.242921 0.970046
vn 0.000000 0.242921 0.970046
vn 0.000000 0.970046 -0.242921
vn 0.000000 0.970046 -0.242921
vn 0.000000 0.970046 -0.242921
vn 0.000000 0.970046 -0.242921
vn 0.000000 -0.242921 -0.970046
vn 0.000000 -0.242921 -0.970046
vn 0.000000 -0.242921 -0.970046
vn 0.000000 -0.242921 -0.970046
vn 0.000000 -0.970046 0.242921
vn 0.000000 -0.970046 0.242921
vn 0.000000 -0.970046 0.242921
vn 0.000000 -0.970046 0.242921
vn 1.000000 0.000000 0.000000
vn 1.000000 0.000000 0.000000
vn 1.000000 0.000000 0.000000
vn 1.000000 0.000000 0.000000
vn -1.000000 0.000000 0.000000
vn -1.000000 0.000000 0.000000
vn -1.000000 0.000000 0.000000
vn -1.000000 0.000000 0.000000
s off
g pasted__pasted__pasted__pCube2 pasted__pasted__group2 pasted__group5 group7
usemtl lambert2SG
f 81/135/225 82/136/226 84/138/227 83/137/228
f 83/137/229 84/138/230 86/140/231 85/139/232
f 85/139/233 86/140/234 88/142/235 87/141/236
f 87/141/237 88/142/238 82/144/239 81/143/240
f 82/136/241 88/145/242 86/146/243 84/138/244
f 87/147/245 81/135/246 83/137/247 85/148/248
